<?xml version="1.0" standalone="no"?>
<!DOCTYPE svg PUBLIC "-//W3C//DTD SVG 20010904//EN"
 "http://www.w3.org/TR/2001/REC-SVG-20010904/DTD/svg10.dtd">
<svg version="1.0" xmlns="http://www.w3.org/2000/svg"
 width="1280.000000pt" height="1280.000000pt" viewBox="0 0 1280.000000 1280.000000"
 preserveAspectRatio="xMidYMid meet">
<g transform="translate(0.000000,1280.000000) scale(0.100000,-0.100000)"
fill="#000000" stroke="none">
<path d="M6860 12565 c-30 -8 -234 -84 -454 -169 -219 -86 -400 -156 -402
-156 -2 0 -5 -219 -6 -487 l-3 -488 -184 -48 c-678 -176 -1263 -451 -1722
-809 -400 -312 -672 -631 -854 -1002 -154 -314 -220 -581 -232 -941 -33 -1009
492 -1776 1582 -2310 368 -180 857 -349 1335 -462 l75 -18 3 -1323 c2 -1222 1
-1323 -14 -1329 -24 -9 -312 14 -478 38 -584 84 -1151 267 -1816 584 -310 148
-405 172 -473 121 -94 -72 -100 -114 -75 -554 11 -191 21 -353 23 -360 5 -15
216 -153 402 -263 179 -105 540 -282 718 -352 470 -184 901 -283 1345 -307
102 -5 228 -9 280 -7 l95 2 6 -705 c5 -622 8 -713 23 -770 38 -144 93 -190
227 -190 91 1 146 13 224 50 234 113 434 468 474 846 6 54 15 277 21 493 5
217 13 398 18 403 4 4 69 19 144 33 583 107 1117 329 1547 643 663 482 1048
1073 1158 1773 25 164 25 564 -1 704 -112 611 -481 1067 -1169 1450 -375 209
-896 408 -1454 555 l-83 22 0 89 c0 86 59 2036 80 2633 5 162 14 294 20 300
11 11 145 -7 435 -60 226 -41 431 -90 583 -139 92 -29 116 -42 137 -68 14 -18
197 -272 408 -566 431 -603 425 -596 535 -596 81 0 167 27 215 66 43 35 76
116 83 203 15 178 92 1812 86 1817 -13 12 -317 117 -485 168 -606 184 -1244
280 -1859 281 -64 0 -119 4 -122 8 -2 4 6 221 20 482 13 261 24 482 24 491 0
9 -22 50 -49 92 -55 85 -102 118 -189 136 -68 14 -133 13 -202 -4z m-862
-3724 l2 -1374 -39 7 c-21 3 -114 31 -207 62 -495 164 -844 349 -1049 558
-142 144 -218 284 -257 474 -29 142 -22 395 16 537 36 138 126 316 218 429
204 252 614 501 1023 620 135 39 248 65 270 63 20 -2 20 -10 23 -1376z m1320
-3437 c324 -120 661 -303 839 -456 215 -183 312 -412 283 -665 -27 -240 -122
-425 -312 -609 -151 -146 -342 -276 -573 -389 -148 -72 -374 -162 -469 -186
-60 -15 -67 -7 -60 76 2 33 15 539 29 1125 14 586 28 1089 31 1118 5 47 8 52
30 52 13 0 104 -30 202 -66z"/>
</g>
</svg>
